<svg width="180" height="30" viewBox="0 0 180 30" fill="none" xmlns="http://www.w3.org/2000/svg">
<path d="M19.9262 21.5259C20.685 22.9473 19.7516 24.532 17.3236 25.4945C14.1172 26.7664 9.52131 26.4742 7.0577 24.8431C4.5941 23.2102 5.19798 20.8572 8.4044 19.5854C10.8324 18.6211 14.0584 18.5558 16.5505 19.2897L21.1375 17.4696C16.6164 15.5394 9.90608 15.4122 5.02696 17.3492C4.79717 17.4403 4.57807 17.5366 4.36252 17.6328V0H0V22.5382H0.00356074C-0.0178154 23.9545 0.844362 25.3828 2.66312 26.5876C4.21289 27.6137 6.24184 28.339 8.46853 28.743C8.49525 28.7481 8.52197 28.7533 8.55048 28.7567C8.59145 28.7636 8.63064 28.7704 8.67161 28.7773C9.97555 28.9973 11.3703 29.1176 12.8204 29.1176C13.3459 29.1176 13.8642 29.1022 14.3737 29.0712C16.6022 28.9303 18.7915 28.4886 20.6993 27.7306C25.5784 25.7953 27.0248 22.4334 24.5131 19.704L19.9262 21.5241V21.5259Z" fill="white"/>
<path d="M40.5934 13.6625C42.1948 12.0967 44.1169 11.3129 46.3596 11.3129C48.6023 11.3129 50.4906 12.0176 52.0261 13.4253C53.5616 14.8347 54.3294 16.5294 54.3294 18.5128C54.3294 20.4963 53.5474 22.1962 51.9833 23.6124C50.4193 25.0287 48.5293 25.7368 46.3169 25.7368C44.1044 25.7368 42.1948 24.886 40.5934 23.1862V25.2865H38.3043V6.53647H40.5934V13.6625ZM46.2189 23.7379C47.8203 23.7379 49.1813 23.2137 50.3035 22.1635C51.424 21.1133 51.9851 19.8844 51.9851 18.4767C51.9851 17.0691 51.4382 15.8402 50.3463 14.79C49.2525 13.7398 47.888 13.2156 46.2474 13.2156C44.6068 13.2156 43.2369 13.7072 42.1342 14.6903C41.0316 15.6734 40.4812 16.911 40.4812 18.4028C40.4812 19.8947 41.0369 21.1563 42.1485 22.191C43.2601 23.224 44.6174 23.7413 46.2189 23.7413V23.7379Z" fill="white"/>
<path d="M65.6659 11.3112C67.889 11.3112 69.779 12.0193 71.3323 13.4356C72.8875 14.8519 73.6641 16.5517 73.6641 18.5352C73.6641 20.5187 72.8964 22.2151 71.3608 23.6227C69.8253 25.0321 67.9264 25.7351 65.6659 25.7351C63.4053 25.7351 61.5011 25.0304 59.9567 23.6227C58.4122 22.2151 57.6391 20.5187 57.6391 18.5352C57.6391 16.5517 58.4158 14.8519 59.9709 13.4356C61.526 12.0193 63.4232 11.3112 65.6659 11.3112ZM65.6659 23.7603C67.2299 23.7603 68.5624 23.2566 69.665 22.2477C70.7677 21.2388 71.3181 20.0236 71.3181 18.5971C71.3181 17.1705 70.757 15.9399 69.6365 14.8966C68.516 13.855 67.1871 13.3342 65.6516 13.3342C64.1161 13.3342 62.7926 13.855 61.681 14.8966C60.5694 15.9381 60.0136 17.1756 60.0136 18.6091C60.0136 20.0426 60.5516 21.2594 61.624 22.2598C62.6964 23.2601 64.0449 23.7603 65.6659 23.7603Z" fill="white"/>
<path d="M91.0483 25.2865H88.7023V23.236C87.1757 24.8362 85.3676 25.6354 83.2745 25.6354C82.1629 25.6354 81.1547 25.381 80.2498 24.8723C79.3449 24.3635 78.6662 23.664 78.2155 22.772C77.763 21.8799 77.5368 20.5101 77.5368 18.6589V11.6584H79.8543V18.1588C79.8543 19.6593 79.9345 20.6802 80.0948 21.2216C80.2551 21.763 80.4903 22.222 80.802 22.5966C81.1137 22.9713 81.5092 23.2515 81.9884 23.4337C82.4693 23.6176 83.0536 23.7087 83.7412 23.7087C84.4288 23.7087 85.1022 23.5591 85.7631 23.2584C86.4222 22.9576 86.9868 22.5416 87.4589 22.0088C87.9292 21.476 88.2552 20.9088 88.4333 20.309C88.6114 19.7091 88.7023 18.5094 88.7023 16.7081V11.6584H91.0483V25.2865Z" fill="white"/>
<path d="M109.364 25.2865H107.047V18.7861C107.047 17.2857 106.966 16.2647 106.806 15.7233C106.646 15.1819 106.411 14.723 106.099 14.3483C105.787 13.9736 105.392 13.6951 104.913 13.5112C104.432 13.3273 103.847 13.2362 103.16 13.2362C102.472 13.2362 101.799 13.3858 101.138 13.6865C100.479 13.9873 99.9123 14.4033 99.442 14.9361C98.97 15.4689 98.6458 16.0361 98.4676 16.636C98.2877 17.2358 98.1986 18.4355 98.1986 20.2351V25.2848H95.8526V11.6601H98.1986V13.7106C99.7253 12.1104 101.533 11.3112 103.626 11.3112C104.738 11.3112 105.746 11.5656 106.651 12.0743C107.556 12.5831 108.235 13.2826 108.685 14.1747C109.138 15.0667 109.364 16.4366 109.364 18.2877V25.2882V25.2865Z" fill="white"/>
<path d="M129.376 25.2865H127.087V23.2859C125.409 24.9187 123.472 25.7351 121.278 25.7351C119.083 25.7351 117.211 25.027 115.667 23.6107C114.122 22.1944 113.349 20.4946 113.349 18.5111C113.349 16.5277 114.131 14.833 115.695 13.4236C117.259 12.0159 119.167 11.3112 121.419 11.3112C123.67 11.3112 125.56 12.119 127.085 13.7364V6.53647H129.374V25.2865H129.376ZM121.461 23.8118C122.951 23.8118 124.278 23.3202 125.446 22.3371C126.615 21.354 127.199 20.1079 127.199 18.5988C127.199 17.0897 126.657 15.8333 125.574 14.8244C124.491 13.8155 123.125 13.3119 121.476 13.3119C119.826 13.3119 118.451 13.8326 117.348 14.8742C116.245 15.9158 115.695 17.1413 115.695 18.5489C115.695 19.9566 116.26 21.1872 117.391 22.2357C118.522 23.2859 119.878 23.8101 121.461 23.8101V23.8118Z" fill="white"/>
<path d="M136.302 25.2865H133.984V6.53647H136.302V25.2865Z" fill="white"/>
<path d="M156.003 18.836H142.492C142.586 20.3365 143.156 21.5396 144.202 22.4488C145.248 23.3581 146.496 23.8118 147.946 23.8118C150.415 23.8118 152.3 22.7376 153.6 20.5874L155.579 21.488C154.694 22.9387 153.648 24.0095 152.443 24.7004C151.237 25.3914 149.795 25.7385 148.117 25.7385C145.8 25.7385 143.887 25.0339 142.38 23.6262C140.873 22.2185 140.119 20.5221 140.119 18.5386C140.119 16.5552 140.878 14.8553 142.394 13.439C143.91 12.0228 145.791 11.3146 148.034 11.3146C150.276 11.3146 152.15 11.985 153.659 13.3273C155.166 14.6697 155.948 16.5071 156.005 18.8394L156.003 18.836ZM153.403 17.0106C153.119 15.8436 152.48 14.9361 151.481 14.2864C150.481 13.6367 149.332 13.3119 148.032 13.3119C145.394 13.3119 143.641 14.5459 142.775 17.0124H153.403V17.0106Z" fill="white"/>
<path d="M168.129 13.262L166.631 14.637C165.519 13.7209 164.5 13.262 163.578 13.262C162.993 13.262 162.504 13.4253 162.108 13.7501C161.713 14.075 161.515 14.4755 161.515 14.9498C161.515 15.4242 161.736 15.8419 162.179 16.1994C162.621 16.5586 163.409 16.9986 164.54 17.5246C165.671 18.0488 166.542 18.628 167.155 19.2622C167.767 19.8965 168.074 20.6716 168.074 21.5877C168.074 22.7548 167.616 23.7379 166.702 24.5371C165.788 25.3381 164.663 25.7368 163.325 25.7368C161.46 25.7368 159.905 25.0373 158.661 23.6365L160.131 22.1859C161.148 23.236 162.185 23.7603 163.239 23.7603C163.955 23.7603 164.568 23.5523 165.076 23.1346C165.585 22.7187 165.838 22.2305 165.838 21.6719C165.838 21.1133 165.607 20.6476 165.145 20.2711C164.684 19.8965 163.891 19.4582 162.771 18.958C161.65 18.4579 160.802 17.9044 160.227 17.296C159.652 16.6875 159.365 15.8883 159.365 14.8966C159.365 13.9048 159.775 13.0592 160.594 12.3597C161.413 11.6601 162.496 11.3095 163.845 11.3095C165.193 11.3095 166.62 11.9592 168.127 13.2603L168.129 13.262Z" fill="white"/>
<path d="M180 13.262L178.502 14.637C177.39 13.7209 176.371 13.262 175.449 13.262C174.864 13.262 174.374 13.4253 173.979 13.7501C173.584 14.075 173.386 14.4755 173.386 14.9498C173.386 15.4242 173.607 15.8419 174.05 16.1994C174.492 16.5586 175.279 16.9986 176.411 17.5246C177.542 18.0488 178.413 18.628 179.026 19.2622C179.638 19.8965 179.945 20.6716 179.945 21.5877C179.945 22.7548 179.487 23.7379 178.573 24.5371C177.659 25.3381 176.533 25.7368 175.196 25.7368C173.331 25.7368 171.776 25.0373 170.532 23.6365L172.002 22.1859C173.019 23.236 174.056 23.7603 175.11 23.7603C175.826 23.7603 176.439 23.5523 176.947 23.1346C177.456 22.7187 177.709 22.2305 177.709 21.6719C177.709 21.1133 177.478 20.6476 177.016 20.2711C176.555 19.8965 175.762 19.4582 174.642 18.958C173.521 18.4579 172.673 17.9044 172.098 17.296C171.523 16.6875 171.236 15.8883 171.236 14.8966C171.236 13.9048 171.645 13.0592 172.465 12.3597C173.284 11.6601 174.367 11.3095 175.716 11.3095C177.064 11.3095 178.491 11.9592 179.998 13.2603L180 13.262Z" fill="white"/>
</svg>
