<svg width="34" height="41" viewBox="0 0 34 41" fill="none" xmlns="http://www.w3.org/2000/svg">
<path d="M26.0573 29.5063C27.0496 31.4547 25.829 33.6269 22.654 34.9462C18.4609 36.6896 12.4509 36.2891 9.22931 34.0533C6.00767 31.8151 6.79735 28.5898 10.9904 26.8464C14.1654 25.5247 18.3841 25.4351 21.643 26.4411L27.6413 23.9462C21.7292 21.3004 12.9541 21.126 6.57372 23.7812C6.27322 23.9061 5.9867 24.038 5.70484 24.17V0H0V30.8939H0.00465635C-0.0232971 32.8353 1.10417 34.7931 3.48254 36.4446C5.50917 37.8511 8.16241 38.8454 11.0742 39.399C11.1092 39.4061 11.1441 39.4131 11.1814 39.4179C11.235 39.4273 11.2862 39.4367 11.3398 39.4461C13.045 39.7477 14.8689 39.9126 16.7651 39.9126C17.4523 39.9126 18.1302 39.8914 18.7964 39.849C21.7105 39.6558 24.5734 39.0503 27.0683 38.0113C33.4487 35.3585 35.3402 30.7502 32.0556 27.0089L26.0573 29.5039V29.5063Z" fill="white"/>
</svg>
