<?xml version="1.0" encoding="utf-8"?>
<!-- Generator: Adobe Illustrator 16.0.0, SVG Export Plug-In . SVG Version: 6.00 Build 0)  -->
<!DOCTYPE svg PUBLIC "-//W3C//DTD SVG 1.1//EN" "http://www.w3.org/Graphics/SVG/1.1/DTD/svg11.dtd">
<svg version="1.1" id="圖層_1" xmlns="http://www.w3.org/2000/svg" xmlns:xlink="http://www.w3.org/1999/xlink" x="0px" y="0px"
	 width="200px" height="60.775px" viewBox="0 0 200 60.775" enable-background="new 0 0 200 60.775" xml:space="preserve">
<g>
	<g>
		<path fill="#FFFFFF" d="M80.285,53.101l0.012,0.101c0.035,0.31,0.061,0.535,0.207,0.651c0.081,0.049,0.177,0.073,0.286,0.073
			c0.048,0,0.1-0.003,0.147-0.013c0.184-0.043,0.331-0.138,0.434-0.28c0.252-0.346-0.115-2.48-0.235-3.183
			c-0.031-0.181-0.138-0.321-0.277-0.365c-0.067-0.022-0.13-0.033-0.191-0.033c-0.085,0-0.169,0.021-0.286,0.065
			c-0.217,0.086-0.348,0.209-0.387,0.368c-0.04,0.155,0.03,0.651,0.084,1.048l0.056,0.432l-2.733,0.252l-0.096,0.007
			c2.23-2.653,3.745-4.71,4.298-5.906c0.025-0.054,0.042-0.191,0.013-0.284c-0.041-0.125-0.136-0.215-0.29-0.276
			c-0.07-0.028-0.141-0.042-0.211-0.042c-0.083,0-0.167,0.02-0.255,0.059c-0.173,0.074-0.32,0.213-0.435,0.416
			c-0.533,0.913-1.125,1.804-1.763,2.652l-0.137,0.169c-0.288-0.354-0.677-0.832-0.846-1.017l-0.048-0.052l0.042-0.057
			c1.765-2.428,2.028-3.133,2.028-3.337c0-0.131-0.064-0.211-0.247-0.305c-0.086-0.044-0.181-0.066-0.282-0.066
			c-0.065,0-0.133,0.01-0.199,0.028c-0.153,0.042-0.315,0.192-0.433,0.403c-0.516,0.914-1.04,1.764-1.559,2.525l-0.038,0.055
			l-0.064-0.021c-0.049-0.019-0.082-0.037-0.084-0.046c-0.113-0.079-0.237-0.118-0.378-0.118c-0.043,0-0.087,0.003-0.125,0.009
			c-0.183,0.046-0.313,0.105-0.435,0.278c-0.108,0.153-0.161,0.311-0.158,0.466c0.008,0.158,0.087,0.284,0.25,0.39
			c0.457,0.388,1.16,1.114,1.746,1.89c-0.289,0.32-0.59,0.695-0.881,1.058c-0.325,0.404-0.771,0.931-1.069,1.248l-0.213,0.017
			h-0.295c-0.207,0.011-0.383,0.088-0.538,0.232c-0.123,0.136-0.196,0.29-0.218,0.448c-0.005,0.182,0.041,0.313,0.142,0.402
			c0.092,0.082,0.215,0.122,0.378,0.122c0.035,0,0.071-0.002,0.108-0.005l1.922-0.19l0.323-0.034l-1.342,6.763
			c-0.031,0.158-0.043,0.375,0.075,0.518c0.085,0.102,0.22,0.161,0.371,0.161l0.031-0.001c0.195-0.01,0.359-0.072,0.501-0.189
			c0.166-0.137,0.271-0.313,0.312-0.522l1.363-6.865l1.614-0.147L80.285,53.101z"/>
		<path fill="#FFFFFF" d="M75.511,54.234c-0.155,0-0.302,0.058-0.44,0.171c-0.125,0.103-0.216,0.263-0.267,0.476
			c-0.421,1.599-0.816,2.832-1.287,3.998c-0.081,0.197-0.094,0.362-0.044,0.48c0.074,0.131,0.177,0.21,0.309,0.236
			c0.045,0.008,0.086,0.013,0.127,0.013c0.112,0,0.211-0.032,0.322-0.105c0.278-0.181,0.848-1.729,1.692-4.591l0.014-0.07
			c0.044-0.221,0.024-0.364-0.066-0.462C75.782,54.283,75.662,54.234,75.511,54.234z"/>
		<path fill="#FFFFFF" d="M79.973,54.342c-0.037,0-0.076,0.004-0.118,0.01c-0.155,0.024-0.276,0.094-0.406,0.233
			c-0.091,0.098-0.146,0.25-0.165,0.448l-0.066,1.975c-0.005,0.182,0.041,0.313,0.133,0.394c0.08,0.052,0.174,0.076,0.308,0.076
			c0.025,0,0.051-0.001,0.079-0.003c0.125-0.008,0.298-0.047,0.421-0.186c0.084-0.106,0.162-0.237,0.173-0.477l0.067-1.976
			c0.005-0.185-0.041-0.315-0.14-0.399C80.182,54.374,80.089,54.342,79.973,54.342z"/>
		<path fill="#FFFFFF" d="M84.064,56.738c0.185-0.186,0.281-0.369,0.29-0.541c0.005-0.161-0.049-0.295-0.158-0.402
			c-0.115-0.085-0.233-0.128-0.36-0.128c-0.029,0-0.061,0.002-0.092,0.007c-0.177,0.026-0.359,0.129-0.539,0.304
			c-1.21,1.305-2.342,1.989-3.78,2.671c-0.482,0.185-0.666,0.482-0.546,0.885c0.043,0.146,0.144,0.25,0.289,0.299
			c0.04,0.015,0.085,0.021,0.14,0.021c0.425,0,1.25-0.419,2.598-1.319C82.651,58.024,83.166,57.623,84.064,56.738z"/>
		<path fill="#FFFFFF" d="M91.314,50.55h-2.356l2.145-4.801c0.076-0.19,0.05-0.429-0.064-0.639c-0.118-0.215-0.289-0.32-0.554-0.32
			c-0.001,0-5.351,0-5.351,0c-0.268,0-0.451,0.022-0.656,0.141c-0.218,0.119-0.373,0.306-0.501,0.607l-1.189,2.62
			c-0.08,0.197-0.067,0.388,0.038,0.58c0.129,0.197,0.297,0.298,0.51,0.308h5.065l-0.676,1.503h-5.179
			c-0.203,0-0.363,0.056-0.488,0.167c-0.132,0.127-0.221,0.276-0.265,0.44c-0.035,0.185-0.011,0.325,0.077,0.432
			c0.078,0.095,0.216,0.148,0.405,0.16h3.646l-1.354,6.835c-0.047,0.241-0.143,0.417-0.281,0.52
			c-0.113,0.094-0.234,0.142-0.361,0.142c-0.138,0-0.387-0.05-0.883-0.149l-0.138-0.027c-0.093-0.019-0.175-0.026-0.249-0.026
			c-0.115,0-0.223,0.019-0.327,0.057c-0.174,0.063-0.306,0.186-0.383,0.355c-0.079,0.171-0.101,0.359-0.059,0.503
			c0.053,0.179,0.41,0.49,2.211,0.571l0.065,0.002c0.25,0,0.502-0.064,0.676-0.17c0.478-0.27,0.779-0.73,0.947-1.446l0.774-3.909
			l0.169-0.005c0.483,1.898,1.208,3.435,2.152,4.57c0.145,0.172,0.282,0.246,0.459,0.246c0.168,0,0.35-0.071,0.535-0.206
			c0.17-0.141,0.275-0.296,0.319-0.466c0.028-0.196-0.024-0.367-0.165-0.525c-0.938-1.193-1.631-2.424-2.06-3.656
			c-0.313-0.886-0.489-1.966-0.529-3.217h3.602c0.19,0,0.345-0.061,0.474-0.185c0.136-0.13,0.223-0.275,0.266-0.44
			c0.036-0.183,0.011-0.324-0.075-0.432C91.627,50.599,91.496,50.55,91.314,50.55z M84.56,47.918c-0.141,0-0.229-0.122-0.229-0.235
			c0-0.073,0.025-0.14,0.055-0.217l0.039-0.104l0.385-0.868c0.066-0.158,0.125-0.294,0.234-0.395c0.116-0.107,0.315-0.18,0.496-0.18
			l3.759,0c0.104,0.011,0.242,0.065,0.315,0.274c0.03,0.12-0.021,0.24-0.071,0.357l-0.631,1.367H84.56z"/>
		<path fill="#FFFFFF" d="M83.113,54.688c0.078,0.176,0.188,0.281,0.32,0.32c0.033,0.004,0.065,0.007,0.098,0.007
			c0.122,0,0.248-0.034,0.374-0.099c0.163-0.094,0.31-0.265,0.373-0.428c0.081-0.259-0.165-0.764-0.907-1.866
			c-0.112-0.168-0.223-0.234-0.391-0.234c-0.155,0-0.291,0.03-0.461,0.17c-0.139,0.114-0.229,0.263-0.267,0.447
			c-0.042,0.167-0.009,0.322,0.105,0.478c0.123,0.2,0.229,0.351,0.324,0.489C82.836,54.193,82.968,54.383,83.113,54.688z"/>
		<path fill="#FFFFFF" d="M91.2,52.533c-0.096-0.059-0.189-0.087-0.29-0.087c-0.055,0-0.113,0.009-0.176,0.028
			c-0.164,0.042-0.322,0.164-0.472,0.368c-0.319,0.419-0.664,0.77-1.229,1.308c-0.175,0.171-0.282,0.349-0.317,0.521
			c-0.019,0.151,0.024,0.281,0.133,0.4c0.099,0.108,0.257,0.18,0.393,0.18c0.024,0,0.048-0.002,0.068-0.006
			c0.548-0.113,0.92-0.517,1.917-1.848c0.144-0.189,0.207-0.366,0.188-0.532C91.403,52.721,91.333,52.612,91.2,52.533z"/>
		<path fill="#FFFFFF" d="M126,49.569c0.026,0.003,0.053,0.004,0.079,0.004c0.146,0,0.297-0.051,0.438-0.146
			c0.187-0.127,0.308-0.275,0.36-0.436c0.048-0.189,0.026-0.368-0.065-0.543c-0.293-0.516-0.675-1.079-1.139-1.677
			c-0.466-0.628-0.806-1.065-1.005-1.297c-0.128-0.144-0.273-0.214-0.477-0.214c-0.002,0-0.003,0-0.004,0
			c-0.17,0.01-0.341,0.091-0.506,0.235c-0.161,0.159-0.254,0.323-0.275,0.489c-0.026,0.181,0.033,0.338,0.184,0.485
			c0.735,0.801,1.402,1.742,1.978,2.792C125.681,49.443,125.829,49.547,126,49.569z"/>
		<path fill="#FFFFFF" d="M122.592,49.496c-0.017,0-0.033,0.001-0.05,0.003c-0.159,0.017-0.322,0.1-0.493,0.25
			c-0.176,0.185-0.241,0.308-0.264,0.507c-0.019,0.163,0.048,0.313,0.204,0.468c0.798,0.848,1.457,1.694,1.963,2.516
			c0.119,0.19,0.27,0.292,0.446,0.307c0.021,0.001,0.041,0.002,0.063,0.002c0.164,0,0.311-0.055,0.46-0.175
			c0.202-0.162,0.292-0.286,0.334-0.456c0.035-0.148-0.074-0.534-0.794-1.523c-0.706-0.864-1.184-1.436-1.416-1.694
			C122.906,49.569,122.745,49.496,122.592,49.496z"/>
		<path fill="#FFFFFF" d="M129.521,44.183c-0.203,0-0.39,0.064-0.545,0.184c-0.132,0.127-0.227,0.299-0.279,0.51l-1.996,10.085
			l-6.869,0.963c-0.249,0.044-0.457,0.142-0.61,0.286c-0.122,0.134-0.189,0.315-0.201,0.535c-0.005,0.183,0.057,0.324,0.186,0.432
			c0.082,0.066,0.201,0.1,0.354,0.1c0.055,0,0.112-0.004,0.174-0.013l6.697-0.938l-0.733,3.698c-0.045,0.229-0.02,0.411,0.07,0.533
			c0.108,0.121,0.252,0.18,0.438,0.18c0.208-0.011,0.384-0.078,0.538-0.205c0.167-0.139,0.271-0.316,0.315-0.541l0.765-3.865
			l1.186-0.183c0.249-0.043,0.456-0.141,0.61-0.286c0.122-0.136,0.187-0.299,0.194-0.501c0.007-0.191-0.048-0.333-0.172-0.435
			c-0.09-0.081-0.231-0.123-0.418-0.123c-0.039,0-0.08,0.001-0.116,0.004l-1.014,0.159l1.964-9.921
			c0.038-0.193,0.001-0.35-0.118-0.483C129.842,44.241,129.706,44.183,129.521,44.183z"/>
		<path fill="#FFFFFF" d="M119.7,55.181c0.04,0.008,0.081,0.012,0.121,0.012c0.124,0,0.255-0.036,0.388-0.106
			c0.191-0.105,0.32-0.242,0.384-0.403c0.074-0.219,0.074-0.4,0.004-0.538c-0.543-0.965-1.226-2.122-2.029-3.438l-0.019-0.028
			l0.056-0.277h2.113c0.204,0,0.378-0.066,0.534-0.204c0.154-0.137,0.252-0.302,0.289-0.49c0.039-0.196,0.011-0.356-0.076-0.476
			c-0.103-0.101-0.254-0.157-0.447-0.167h-2.148l0.582-2.942l0.059-0.01c0.662-0.115,1.322-0.261,1.96-0.433
			c0.255-0.075,0.442-0.193,0.562-0.353c0.125-0.156,0.175-0.328,0.151-0.535c-0.004-0.186-0.074-0.308-0.213-0.375
			c-0.09-0.042-0.193-0.063-0.309-0.063c-0.086,0-0.18,0.011-0.277,0.033c-1.303,0.348-3.047,0.605-5.189,0.768
			c-0.238,0.01-0.445,0.085-0.61,0.221c-0.156,0.139-0.247,0.303-0.275,0.503c-0.027,0.193,0.016,0.346,0.137,0.468
			c0.09,0.1,0.229,0.149,0.422,0.149c0.033,0,0.069-0.001,0.107-0.005c0.678-0.046,1.333-0.098,1.966-0.156l0.115-0.011
			l-0.542,2.739h-2.484c-0.204,0-0.385,0.062-0.546,0.187c-0.158,0.138-0.253,0.299-0.29,0.49c-0.039,0.196-0.012,0.356,0.083,0.484
			c0.097,0.119,0.245,0.176,0.455,0.176h2.408l-0.08,0.132c-0.991,1.631-2.294,3.25-3.868,4.812
			c-0.175,0.171-0.279,0.365-0.31,0.564c-0.001,0.164,0.057,0.302,0.173,0.42c0.113,0.098,0.23,0.146,0.36,0.146
			c0.032,0,0.066-0.003,0.108-0.011c0.261-0.022,0.963-0.558,2.821-2.982c0.054-0.084,0.112-0.164,0.176-0.236l0.214-0.247
			l-1.39,7.026c-0.046,0.229-0.021,0.41,0.07,0.532c0.108,0.121,0.251,0.18,0.438,0.18c0.206-0.011,0.383-0.078,0.536-0.205
			c0.169-0.139,0.272-0.316,0.317-0.541l1.476-7.458l0.115,0.205c0.416,0.738,0.766,1.437,1.041,2.079
			C119.418,55.034,119.537,55.152,119.7,55.181z"/>
		<path fill="#FFFFFF" d="M149.908,46.077h-4.263l0.245-1.233c0.04-0.205,0.006-0.353-0.114-0.479
			c-0.107-0.111-0.239-0.167-0.431-0.181l-0.052-0.002c-0.185,0-0.371,0.071-0.485,0.185c-0.075,0.076-0.24,0.39-0.503,1.642
			l-0.015,0.069h-3.681c-0.205,0-0.386,0.063-0.548,0.187c-0.157,0.139-0.252,0.299-0.29,0.491c-0.038,0.196-0.01,0.356,0.084,0.484
			c0.096,0.118,0.245,0.176,0.454,0.176h3.717l-0.492,2.485h-3.118c-0.204,0-0.389,0.059-0.546,0.171
			c-0.153,0.127-0.25,0.292-0.291,0.506c-0.037,0.185-0.008,0.338,0.089,0.469c0.095,0.129,0.241,0.19,0.449,0.19h6.374
			c0.264,0,0.419,0.064,0.479,0.2c0.027,0.088,0.077,0.252-1.091,1.782c-0.678,0.87-1.569,1.764-2.649,2.655l-0.063,0.053
			l-0.056-0.061c-0.815-0.884-1.566-2.061-2.23-3.493c-0.104-0.195-0.262-0.32-0.42-0.337c-0.021-0.002-0.04-0.003-0.062-0.003
			c-0.153,0-0.327,0.054-0.479,0.146c-0.18,0.111-0.3,0.26-0.359,0.442c-0.069,0.186-0.054,0.367,0.046,0.553
			c0.78,1.355,1.594,2.521,2.418,3.461l0.069,0.078l-1.269,0.75c-0.998,0.534-2.417,1.09-4.218,1.658
			c-0.274,0.082-0.429,0.178-0.516,0.325c-0.11,0.188-0.158,0.376-0.147,0.58c0.006,0.178,0.082,0.307,0.237,0.397
			c0.086,0.055,0.184,0.081,0.298,0.081c0.078,0,0.164-0.013,0.254-0.039c1.646-0.494,3.128-1.087,4.4-1.764
			c0.607-0.347,1.199-0.713,1.761-1.091l0.059-0.039l0.05,0.047c1.414,1.308,2.771,2.249,4.024,2.796
			c0.126,0.042,0.248,0.063,0.366,0.063c0.1,0,0.192-0.016,0.279-0.046c0.178-0.063,0.344-0.2,0.5-0.412
			c0.115-0.204,0.153-0.388,0.113-0.569c-0.034-0.189-0.163-0.327-0.398-0.421c-1.472-0.637-2.735-1.391-3.755-2.237l-0.076-0.063
			l0.074-0.067c1.746-1.603,3.187-3.275,4.282-4.969c0.383-0.591,0.545-0.915,0.545-1.081c-0.001-0.193-0.068-0.361-0.201-0.496
			c-0.129-0.135-0.329-0.207-0.592-0.218h-3.276l0.491-2.485h4.228c0.204,0,0.377-0.067,0.533-0.204
			c0.156-0.138,0.252-0.298,0.29-0.49c0.041-0.207,0.014-0.37-0.082-0.482C150.264,46.137,150.13,46.089,149.908,46.077z"/>
		<path fill="#FFFFFF" d="M136.58,53.99c1.698-0.777,2.13-1.185,2.191-1.385c0.044-0.167,0.035-0.344-0.019-0.509
			c-0.093-0.164-0.207-0.258-0.34-0.286l-0.052-0.002c-0.174,0-0.353,0.05-0.524,0.144c-0.219,0.141-0.502,0.3-0.841,0.474
			l-0.16,0.082l0.692-3.495h1.269c0.203,0,0.378-0.067,0.533-0.204c0.155-0.137,0.253-0.302,0.291-0.49
			c0.038-0.197,0.01-0.357-0.078-0.478c-0.102-0.1-0.254-0.156-0.446-0.166h-1.305l0.562-2.832c0.046-0.23,0.016-0.413-0.085-0.55
			c-0.108-0.121-0.253-0.18-0.436-0.18c-0.205,0.01-0.386,0.08-0.536,0.204c-0.156,0.137-0.258,0.325-0.306,0.56l-0.553,2.798
			h-1.639c-0.206,0-0.386,0.062-0.547,0.187c-0.158,0.139-0.253,0.3-0.29,0.49c-0.04,0.197-0.013,0.356,0.083,0.484
			c0.097,0.118,0.246,0.176,0.455,0.176h1.672l-0.83,4.198l-0.044,0.019c-0.701,0.276-1.397,0.523-2.068,0.729
			c-0.237,0.081-0.405,0.194-0.483,0.327c-0.104,0.179-0.142,0.363-0.109,0.548c0.028,0.166,0.13,0.304,0.271,0.371
			c0.074,0.035,0.155,0.053,0.241,0.053c0.09,0,0.188-0.019,0.29-0.055c0.495-0.186,0.988-0.365,1.481-0.54l0.145-0.051l-0.76,3.833
			c-0.046,0.239-0.143,0.424-0.291,0.557c-0.085,0.064-0.219,0.096-0.407,0.096c-0.172,0-0.396-0.026-0.674-0.082
			c-0.095-0.027-0.19-0.043-0.28-0.043c-0.315,0-0.578,0.179-0.737,0.502c-0.087,0.175-0.103,0.362-0.041,0.5
			c0.107,0.246,0.504,0.41,1.175,0.486c0.139,0.009,0.271,0.014,0.396,0.014c0.46,0,0.822-0.065,1.072-0.194
			c0.572-0.333,0.932-0.827,1.07-1.471l0.951-4.805L136.58,53.99z"/>
		<path fill="#FFFFFF" d="M110.172,44.861H97.825c-0.289,0-0.491,0.076-0.717,0.272c-0.216,0.196-0.354,0.42-0.415,0.665
			l-1.131,5.732c-0.066,0.276-0.023,0.556,0.119,0.785c0.119,0.192,0.336,0.306,0.58,0.306h3.742
			c-1.794,1.618-3.928,2.857-6.072,3.557c-0.219,0.075-0.384,0.197-0.491,0.365c-0.108,0.167-0.145,0.354-0.111,0.564
			c0.034,0.193,0.111,0.321,0.224,0.383c0.063,0.022,0.141,0.033,0.231,0.033c0.706,0,2.165-0.657,4.331-1.95l0.85-0.61
			c-0.362,1.686-1.386,2.984-3.044,3.854c-0.173,0.1-0.35,0.185-0.557,0.266c-0.273,0.106-0.445,0.247-0.544,0.443
			c-0.064,0.131-0.13,0.329-0.075,0.53c0.052,0.196,0.15,0.306,0.316,0.356c0.056,0.017,0.119,0.026,0.188,0.026
			c0.445,0,1.152-0.343,2.1-1.02c1.543-1.14,2.561-2.701,3.025-4.638l0.213-1.078c0.505-0.443,0.933-0.843,1.175-1.083h1.478
			c0.055,0.076,0.114,0.155,0.116,0.159c0.361,0.522,0.773,1.024,1.223,1.495l-1.139,5.753c-0.049,0.237-0.022,0.417,0.072,0.537
			c0.097,0.119,0.224,0.177,0.39,0.177l0.043-0.002c0.212-0.011,0.383-0.075,0.54-0.205c0.167-0.139,0.271-0.316,0.315-0.541
			l0.921-4.647l0.248,0.23c0.872,0.7,1.836,1.304,2.866,1.797c0.126,0.062,0.251,0.093,0.372,0.093c0.085,0,0.17-0.015,0.255-0.045
			c0.186-0.064,0.36-0.2,0.515-0.397c0.114-0.191,0.163-0.384,0.148-0.566c-0.034-0.191-0.157-0.335-0.378-0.438
			c-1.787-0.784-3.408-1.967-4.665-3.398h3.521c0.273-0.011,0.554-0.127,0.829-0.346c0.288-0.229,0.463-0.493,0.521-0.782
			l1.131-5.726c0.037-0.237-0.017-0.448-0.161-0.627C110.77,44.95,110.533,44.861,110.172,44.861z M102.148,51.353h-4.51
			c-0.215,0-0.376-0.063-0.477-0.188c-0.083-0.101-0.109-0.26-0.077-0.488l0.258-1.302h5.195L102.148,51.353z M102.788,48.106
			h-5.195l0.259-1.312c0.027-0.205,0.114-0.375,0.257-0.503c0.103-0.096,0.273-0.15,0.523-0.163h0.002h4.544L102.788,48.106z
			 M108.754,50.709c-0.04,0.22-0.113,0.365-0.234,0.467c-0.14,0.118-0.323,0.177-0.546,0.177h-4.472l0.39-1.979h5.126
			L108.754,50.709z M109.522,46.823l-0.253,1.283h-5.127l0.39-1.978h4.44c0.214,0,0.38,0.069,0.491,0.206
			C109.548,46.438,109.567,46.598,109.522,46.823z"/>
		<path fill="#FFFFFF" d="M32.914,36.136H18.189l1.745-6.528h13.271c0.548-3.849,1.539-7.394,2.905-10.601H22.766l1.563-5.852
			h15.046c3.257-4.925,7.551-8.721,12.473-11.222c0.403-0.204,0.251-0.813-0.2-0.813H27.545h-8.022h-5.214
			c-1.692,0-3.172,1.137-3.608,2.771L0.129,43.458c-0.634,2.371,1.153,4.698,3.606,4.698h5.822L9.55,48.17h29.231
			c0.359,0,0.503-0.456,0.216-0.669C35.193,44.675,33.201,40.619,32.914,36.136z"/>
		<path fill="#FFFFFF" d="M198.946,6.715h-23.523c-0.736,0-1.403,0.432-1.704,1.104l-0.726,1.618h26.358l0.556-1.238
			C200.218,7.501,199.709,6.715,198.946,6.715z"/>
		<path fill="#FFFFFF" d="M167.851,20.912H90.083l-0.333,1.253l0,0l-0.104,0.397l-4.58,17.36h9.928l3.159-11.973
			c0.594,0.108,2.248,0.244,2.831,0.253c5.685,0.093,10.935-1.454,15.021-4.486c0.476-0.346,0.922-0.729,1.355-1.129h6.762
			c-3.7,1.784-6.283,4.521-7.268,8.494c-1.151,4.646,1.529,8.739,8.216,8.851c3.958,0.066,8.392-1.273,10.665-3.081l0.325-0.252
			l-0.592,3.362h9.788c0.076-1.67,0.082-3.85,1.011-7.295c0.852-3.16,2.44-8.456,2.93-10.079h5.889l3.586,17.668
			c0.117,0.757,0.063,1.2-0.037,1.579c-0.101,0.378-0.512,1.16-0.917,1.702c-1.067,1.425-1.799,2.478-4.489,4.269l-1.941,11.227
			c1.892-0.66,4.034-1.697,6.246-3.284c4.293-3.097,8.545-7.961,16.219-20.282l6.255-10.125l1.702-2.754h10.541
			c0.736,0,1.403-0.432,1.704-1.104l4.383-9.78h-26.357L167.851,20.912z M138.496,27.737c-0.215,0.659-0.363,1.155-0.75,1.921
			c-1.263,2.512-3.581,3.744-7.273,3.978c-3.36,0.214-4.439-1.698-3.985-3.335c0.967-3.493,5.846-4.622,12.418-4.622
			C138.905,25.679,138.71,27.078,138.496,27.737z M168.23,30.286c-0.926,1.832-1.033,2.142-1.862,3.847h-0.254l-1.341-11.545h3.952
			h3.084L168.23,30.286z"/>
		<path fill="#FFFFFF" d="M83.241,29.777H69.086c0,0-2.081,7.394-8.741,7.723c-5.408,0.267-6.362-2.921-6.441-6.323
			c-0.107-4.618,2.984-20.188,13.511-19.547c4.504,0.274,4.384,5.015,4.189,6.748h14.459c0.117-0.956,0.289-2.95,0.135-5.624
			C85.953,8.52,82.149,0.339,70.597,0.013c-16.526-0.466-31.028,12.022-32.083,32.95c-0.45,8.922,5.993,16.612,20.205,16.173
			C71.586,48.739,80.17,41.076,83.241,29.777z"/>
		<path fill="#FFFFFF" d="M103.513,7.984c0.744-0.19,1.718-0.316,3.613-0.316c4.864,0,6.965,2.337,5.931,6.254
			c-0.478,1.811-1.438,3.317-2.771,4.456h10.47c0.826-1.464,1.476-3.068,1.925-4.771c1.101-4.169,0.265-7.708-1.949-9.855
			c-2.242-2.275-6.176-3.413-12.114-3.413c-5.877,0-10.146,0.379-13.25,0.885l-4.634,17.154h10.037L103.513,7.984z"/>
		<polygon fill="#FFFFFF" points="164.144,18.378 163.216,8.977 152.564,8.977 154.377,18.378 		"/>
	</g>
	<path fill="#FFFFFF" d="M135.72,14.852c4.882-0.044,5.414,1.894,5.141,3.526h8.914c0.623-5.795-1.865-10.16-10.599-10.16
		c-5.126,0-9.441,1.312-12.031,2.453l-1.986,7.55c0.746-0.87,2.997-1.91,5.365-2.576C132.395,15.119,134.328,14.864,135.72,14.852z"
		/>
</g>
</svg>
