<?xml version="1.0" encoding="UTF-8"?>
<svg id="_圖層_1" data-name="圖層 1" xmlns="http://www.w3.org/2000/svg" viewBox="0 0 391.79 114.18">
  <defs>
    <style>
      .cls-1 {
        fill: #34b05a;
      }

      .cls-1, .cls-2, .cls-3 {
        stroke-width: 0px;
      }

      .cls-2 {
        fill: #fff;
      }

      .cls-3 {
        fill: #040000;
      }
    </style>
  </defs>
  <g>
    <rect class="cls-3" x="51.38" y="24.79" width="14.83" height="64.62" rx="2.65" ry="2.65"/>
    <path class="cls-3" d="M40.52,74.58H14.83V27.44c0-1.46-1.19-2.65-2.65-2.65H2.65c-1.46,0-2.65,1.19-2.65,2.65v59.32c0,1.46,1.19,2.65,2.65,2.65h37.87c1.46,0,2.65-1.19,2.65-2.65v-9.53c0-1.46-1.19-2.65-2.65-2.65Z"/>
    <path class="cls-3" d="M182.21,39.62c1.46,0,2.65-1.19,2.65-2.65v-9.53c0-1.46-1.19-2.65-2.65-2.65h-37.87c-1.46,0-2.65,1.19-2.65,2.65v59.32c0,1.46,1.19,2.65,2.65,2.65h37.87c1.46,0,2.65-1.19,2.65-2.65v-9.53c0-1.46-1.19-2.65-2.65-2.65h-25.69v-10.06h25.69c1.46,0,2.65-1.19,2.65-2.65v-9.53c0-1.46-1.19-2.65-2.65-2.65h-25.69v-10.06h25.69Z"/>
    <path class="cls-3" d="M128.98,24.79h-9.53c-1.46,0-2.65,1.19-2.65,2.65v34.33l-24.95-35.67c-.71-1.01-1.76-1.3-2.93-1.3-.15-.03-.3,0-.45,0h-9.53c-1.46,0-2.65,1.19-2.65,2.65v59.32c0,1.46,1.19,2.65,2.65,2.65h9.53c1.46,0,2.65-1.19,2.65-2.65v-35.85l26.01,37.2c.09.13.2.25.3.37.45.53,1.1.89,1.83.94h9.72c1.46,0,2.65-1.19,2.65-2.65V27.44c0-1.46-1.19-2.65-2.65-2.65Z"/>
  </g>
  <g>
    <rect class="cls-1" x="209.76" width="182.03" height="114.18" rx="6.62" ry="6.62"/>
    <g>
      <path class="cls-2" d="M275.39,44.53c0,10.03-8.07,18.1-18.48,18.1h-7.92v14.82c0,.98-.8,1.78-1.78,1.78h-8.51c-.98,0-1.78-.8-1.78-1.78V28.2c0-.98.8-1.78,1.78-1.78h18.21c10.41,0,18.48,8.07,18.48,18.1ZM263.32,44.53c0-3.85-2.72-6.79-6.41-6.79h-7.92v13.58h7.92c3.7,0,6.41-2.94,6.41-6.79Z"/>
      <path class="cls-2" d="M320.19,42.45v35.84c0,.52-.42.94-.94.94h-9.44c-.52,0-.94-.42-.94-.94v-2.61c-2.49,2.87-6.18,4.6-11.24,4.6-9.88,0-18.03-8.67-18.03-19.91s8.15-19.91,18.03-19.91c5.05,0,8.75,1.73,11.24,4.6v-2.61c0-.52.42-.94.94-.94h9.44c.52,0,.94.42.94.94ZM308.88,60.37c0-5.66-3.77-9.2-8.98-9.2s-8.98,3.54-8.98,9.2,3.77,9.2,8.98,9.2,8.98-3.54,8.98-9.2Z"/>
      <path class="cls-2" d="M357.84,42.49l-8.68,21.87-8.98-21.89c-.24-.59-.81-.97-1.44-.97h-9.63c-.67,0-1.12.67-.87,1.29l14.98,36.51-5.46,13.75c-.24.61.21,1.28.87,1.28h9.63c.64,0,1.21-.39,1.45-.98l20.07-50.57c.24-.61-.21-1.28-.87-1.28h-9.63c-.64,0-1.21.39-1.45.98Z"/>
    </g>
  </g>
</svg>