<svg width="20" height="12" viewBox="0 0 20 12" fill="none" xmlns="http://www.w3.org/2000/svg">
<g id="logo">
<g id="icon">
<path id="Vector" d="M12.3312 1.2832H7.08179V10.7171H12.3312V1.2832Z" fill="#FF5F00"/>
<path id="&#60;Path&#62;" d="M7.41492 6.00112C7.41396 5.09244 7.61976 4.19544 8.01675 3.37807C8.41375 2.5607 8.99152 1.84437 9.70633 1.28333C8.82128 0.587782 7.75841 0.15526 6.63917 0.035201C5.51994 -0.0848583 4.38951 0.112388 3.37708 0.604397C2.36465 1.09641 1.51106 1.86333 0.913876 2.81751C0.31669 3.77169 0 4.87463 0 6.00029C0 7.12594 0.31669 8.22888 0.913876 9.18306C1.51106 10.1372 2.36465 10.9042 3.37708 11.3962C4.38951 11.8882 5.51994 12.0854 6.63917 11.9654C7.75841 11.8453 8.82128 11.4128 9.70633 10.7172C8.99174 10.1564 8.4141 9.44032 8.01712 8.62325C7.62013 7.80618 7.41421 6.90952 7.41492 6.00112Z" fill="#EB001B"/>
<path id="Vector_2" d="M19.4133 6.00083C19.4132 7.12657 19.0965 8.22958 18.4992 9.1838C17.9019 10.138 17.0482 10.9049 16.0356 11.3969C15.0231 11.8888 13.8925 12.0859 12.7732 11.9657C11.6539 11.8455 10.591 11.4127 9.70605 10.717C10.4204 10.1556 10.9978 9.43933 11.3949 8.62222C11.792 7.80511 11.9983 6.90849 11.9983 6C11.9983 5.09151 11.792 4.19489 11.3949 3.37778C10.9978 2.56067 10.4204 1.84441 9.70605 1.28305C10.591 0.587281 11.6539 0.15455 12.7732 0.034318C13.8925 -0.0859137 15.0231 0.111206 16.0356 0.603144C17.0482 1.09508 17.9019 1.86199 18.4992 2.8162C19.0965 3.77042 19.4132 4.87343 19.4133 5.99917V6.00083Z" fill="#F79E1B"/>
</g>
</g>
</svg>
