<svg width="23" height="7" viewBox="0 0 23 7" fill="none" xmlns="http://www.w3.org/2000/svg">
<g id="icon">
<path id="path10 2" d="M20.0306 0H15.7324C15.9828 1.41882 17.3599 2.75419 18.8622 2.75419H22.284C22.3258 2.629 22.3258 2.42034 22.3258 2.29515C22.3258 1.04325 21.2825 0 20.0306 0Z" fill="#27B1E6"/>
<path id="path12 3" d="M16.1077 3.00439V6.46799H18.1942V4.63187H20.0303C21.0318 4.63187 21.9081 3.92246 22.2003 3.00439H16.1077Z" fill="#4FAD50"/>
<path id="path14 2" d="M8.76294 0V6.42644H10.5991C10.5991 6.42644 11.0581 6.42643 11.3085 5.9674C12.5604 3.50533 12.9359 2.75419 12.9359 2.75419H13.1863V6.42644H15.2728V0H13.4367C13.4367 0 12.9777 0.0417326 12.7273 0.459034C11.684 2.58727 11.0998 3.67225 11.0998 3.67225H10.8494V0H8.76294Z" fill="#4FAD50"/>
<path id="path16 2" d="M0 6.46818V0.041748H2.0865C2.0865 0.041748 2.67073 0.0417468 3.00457 0.959809C3.83917 3.38015 3.92264 3.714 3.92264 3.714C3.92264 3.714 4.08955 3.12977 4.84069 0.959809C5.17453 0.0417468 5.75876 0.041748 5.75876 0.041748H7.84526V6.46818H5.75876V3.00459H5.50837L4.33994 6.46818H3.42187L2.25343 3.00459H2.00305V6.46818H0Z" fill="#4FAD50"/>
</g>
</svg>
