<svg width="20" height="6" viewBox="0 0 20 6" fill="none" xmlns="http://www.w3.org/2000/svg">
<g id="icon">
<path id="Vector" d="M10.1093 1.91817C10.0987 2.75395 10.8541 3.22038 11.4232 3.49768C12.0079 3.78222 12.2043 3.96466 12.2021 4.21908C12.1976 4.60852 11.7356 4.78036 11.3032 4.78706C10.5489 4.79877 10.1104 4.58341 9.76168 4.42049L9.48996 5.69202C9.83979 5.85326 10.4875 5.99386 11.1593 6C12.736 6 13.7676 5.22168 13.7732 4.01488C13.7793 2.48336 11.6547 2.39855 11.6692 1.71397C11.6743 1.50642 11.8723 1.28492 12.3064 1.22857C12.5212 1.20011 13.1143 1.17835 13.7866 1.488L14.0505 0.257765C13.689 0.126093 13.2242 0 12.6456 0C11.1615 0 10.1176 0.788916 10.1093 1.91817ZM16.5863 0.106007C16.2984 0.106007 16.0557 0.273945 15.9475 0.531709L13.6951 5.90962H15.2707L15.5843 5.04315H17.5097L17.6916 5.90962H19.0803L17.8684 0.106007H16.5863ZM16.8067 1.6738L17.2614 3.85308H16.0161L16.8067 1.6738ZM8.19891 0.106007L6.95695 5.90962H8.45835L9.69975 0.106007H8.19891ZM5.97778 0.106007L4.41501 4.05617L3.78287 0.697415C3.70867 0.322484 3.41575 0.106007 3.09048 0.106007H0.535708L0.5 0.274503C1.02446 0.388321 1.62033 0.571881 1.98131 0.768273C2.20225 0.888228 2.2653 0.993119 2.33783 1.27822L3.53515 5.90962H5.12191L7.5545 0.106007H5.97778Z" fill="white"/>
</g>
</svg>
