<svg width="188" height="30" viewBox="0 0 188 30" fill="none" xmlns="http://www.w3.org/2000/svg">
<path d="M42.4481 25.9252V27.5987H38.0157V7.01077H42.4481V15.8137H42.503C43.6647 14.1703 45.3204 13.3487 47.4703 13.3487C49.381 13.3487 50.8791 13.9614 51.9629 15.185C53.0467 16.4087 53.5885 18.0981 53.5885 20.2532C53.5885 22.5589 52.967 24.4165 51.7221 25.8243C50.4789 27.2321 48.8267 27.9369 46.769 27.9369C44.8848 27.9369 43.4628 27.2658 42.5012 25.9252H42.4464H42.4481ZM42.3791 21.5867C42.3791 22.5004 42.6766 23.2672 43.2716 23.8888C43.8666 24.5086 44.621 24.8202 45.5347 24.8202C46.6415 24.8202 47.5039 24.4271 48.1202 23.6373C48.7382 22.8493 49.0463 21.7336 49.0463 20.2922C49.0463 19.0933 48.7648 18.1565 48.2016 17.4818C47.6385 16.8071 46.8363 16.4689 45.7933 16.4689C44.8051 16.4689 43.9888 16.8089 43.3442 17.4871C42.6996 18.1654 42.3773 19.0384 42.3773 20.1027V21.5867H42.3791Z" fill="white"/>
<path d="M56.7247 20.7065C56.7247 18.4168 57.472 16.6194 58.9684 15.3108C60.463 14.0021 62.4747 13.3487 64.9981 13.3487C67.5216 13.3487 69.3792 13.9915 70.8154 15.2789C72.2516 16.5663 72.9688 18.2946 72.9688 20.4657C72.9688 22.7466 72.2321 24.5617 70.7605 25.9111C69.2872 27.2605 67.2932 27.9352 64.7786 27.9352C62.264 27.9352 60.3497 27.287 58.8993 25.9925C57.449 24.6963 56.7247 22.9343 56.7247 20.7048V20.7065ZM61.2121 20.657C61.2121 23.4319 62.4464 24.8202 64.9167 24.8202C67.387 24.8202 68.4708 23.3947 68.4708 20.5436C68.4708 17.6926 67.2772 16.4689 64.8901 16.4689C63.7285 16.4689 62.8253 16.8337 62.1807 17.5633C61.5361 18.2929 61.2138 19.3235 61.2138 20.657H61.2121Z" fill="white"/>
<path d="M91.1837 27.5987H86.7796V25.4737H86.7106C85.5755 27.117 84.026 27.9387 82.0585 27.9387C78.5275 27.9387 76.7619 25.9855 76.7619 22.0772V13.6887H81.1944V21.7C81.1944 23.779 82.0816 24.8185 83.856 24.8185C84.7432 24.8185 85.4515 24.5334 85.9828 23.9631C86.514 23.3929 86.7779 22.6208 86.7779 21.6486V13.6869H91.182V27.5969L91.1837 27.5987Z" fill="white"/>
<path d="M110.523 27.5987H106.119V19.8388C106.119 17.5916 105.235 16.4689 103.472 16.4689C102.631 16.4689 101.929 16.7682 101.373 17.3685C100.815 17.9688 100.536 18.7338 100.536 19.6635V27.5987H96.1032V13.6887H100.536V15.9022H100.591C101.697 14.2004 103.325 13.3487 105.475 13.3487C108.841 13.3487 110.523 15.2594 110.523 19.0844V27.5987Z" fill="white"/>
<path d="M129.849 27.5987H125.43V25.6366H125.361C124.292 27.1701 122.708 27.9387 120.614 27.9387C118.683 27.9387 117.15 27.3136 116.011 26.0651C114.872 24.8167 114.302 23.1131 114.302 20.9598C114.302 18.6789 114.94 16.8408 116.217 15.4453C117.493 14.0499 119.16 13.3522 121.217 13.3522C123.275 13.3522 124.575 14.0056 125.361 15.3143H125.43V7.01432H129.849V27.6022V27.5987ZM125.499 19.7255C125.499 18.7869 125.191 18.0095 124.573 17.3933C123.955 16.777 123.185 16.4689 122.262 16.4689C121.182 16.4689 120.334 16.8603 119.717 17.6447C119.099 18.4292 118.791 19.4917 118.791 20.8323C118.791 22.1728 119.089 23.0901 119.684 23.7807C120.279 24.4731 121.097 24.8185 122.14 24.8185C123.119 24.8185 123.923 24.4537 124.555 23.7241C125.186 22.9945 125.503 22.0471 125.503 20.8819V19.7255H125.499Z" fill="white"/>
<path d="M134.713 27.5987V7.01077H139.131V27.5987H134.713Z" fill="white"/>
<path d="M157.469 21.7885H147.481C147.637 23.9437 149.053 25.0203 151.734 25.0203C153.408 25.0203 154.885 24.6431 156.167 23.8888V26.8691C154.786 27.581 152.974 27.9387 150.734 27.9387C148.319 27.9387 146.441 27.3136 145.103 26.0651C143.762 24.8167 143.093 23.0759 143.093 20.8464C143.093 18.6169 143.806 16.8195 145.234 15.4329C146.661 14.0446 148.453 13.3522 150.612 13.3522C152.77 13.3522 154.442 13.949 155.653 15.1443C156.865 16.3396 157.472 17.9794 157.472 20.0673V21.7903L157.469 21.7885ZM153.339 19.2474C153.339 17.1684 152.42 16.1289 150.582 16.1289C149.822 16.1289 149.151 16.414 148.565 16.9842C147.979 17.5544 147.614 18.3088 147.467 19.2474H153.339Z" fill="white"/>
<path d="M160.853 23.8622C162.37 24.7087 163.858 25.1319 165.312 25.1319C167.141 25.1319 168.056 24.6839 168.056 23.7861C168.056 23.1485 167.302 22.6155 165.793 22.1887C163.909 21.6522 162.615 21.0554 161.91 20.3966C161.205 19.7379 160.853 18.8472 160.853 17.7244C160.853 16.3573 161.456 15.286 162.664 14.5103C163.872 13.7347 165.453 13.3469 167.412 13.3469C168.802 13.3469 170.142 13.5346 171.432 13.9136V17.1082C170.252 16.4707 168.952 16.1519 167.536 16.1519C166.831 16.1519 166.264 16.267 165.834 16.4972C165.404 16.7274 165.189 17.032 165.189 17.4092C165.189 18.0467 165.83 18.562 167.111 18.9569C168.483 19.3766 169.514 19.7574 170.204 20.1009C170.895 20.4445 171.421 20.8978 171.782 21.4592C172.144 22.0205 172.324 22.6704 172.324 23.4089C172.324 24.8433 171.697 25.9553 170.445 26.7487C169.192 27.5403 167.518 27.9369 165.423 27.9369C163.776 27.9369 162.253 27.6979 160.854 27.2197V23.8622H160.853Z" fill="white"/>
<path d="M175.623 23.8622C177.141 24.7087 178.628 25.1319 180.082 25.1319C181.912 25.1319 182.827 24.6839 182.827 23.7861C182.827 23.1485 182.073 22.6155 180.564 22.1887C178.68 21.6522 177.385 21.0554 176.68 20.3966C175.976 19.7379 175.623 18.8472 175.623 17.7244C175.623 16.3573 176.227 15.286 177.435 14.5103C178.643 13.7347 180.224 13.3469 182.183 13.3469C183.573 13.3469 184.913 13.5346 186.202 13.9136V17.1082C185.023 16.4707 183.723 16.1519 182.306 16.1519C181.602 16.1519 181.035 16.267 180.605 16.4972C180.174 16.7274 179.96 17.032 179.96 17.4092C179.96 18.0467 180.601 18.562 181.881 18.9569C183.254 19.3766 184.285 19.7574 184.975 20.1009C185.666 20.4445 186.192 20.8978 186.553 21.4592C186.914 22.0205 187.095 22.6704 187.095 23.4089C187.095 24.8433 186.468 25.9553 185.216 26.7487C183.962 27.5403 182.289 27.9369 180.194 27.9369C178.547 27.9369 177.024 27.6979 175.625 27.2197V23.8622H175.623Z" fill="white"/>
<path d="M4.33777 0H0.000955875V23.2212H4.33777V0Z" fill="white"/>
<path d="M24.3695 20.3028L19.8095 22.1781C20.5639 23.6426 19.636 25.2754 17.2223 26.267C14.0348 27.5775 9.466 27.2764 7.01691 25.5959C4.56782 23.9136 5.16814 21.4893 8.35567 20.1789C10.7693 19.1854 13.9764 19.1181 16.4538 19.8743L21.0137 17.9989C16.5193 16.0103 9.8485 15.8792 4.99813 17.875C-0.603071 20.1771 -1.65496 24.4395 2.64821 27.3933C4.18885 28.4505 6.20586 29.1978 8.41942 29.614C8.44598 29.6193 8.47255 29.6246 8.50088 29.6281C8.54161 29.6352 8.58057 29.6423 8.6213 29.6494C9.91756 29.876 11.3041 30 12.7456 30C13.268 30 13.7833 29.9841 14.2898 29.9522C16.5051 29.807 18.6815 29.3519 20.5781 28.5709C25.4285 26.5769 26.8664 23.1132 24.3695 20.301V20.3028Z" fill="white"/>
</svg>
